{"title":"Independence.Day.Resurgence.2016.WEBRip.480p.x264-VYTO [P2PDL]","uid":15913346,"size":478884887,"categoryP":"video","categoryS":"movies","magnet":"?xt=urn:btih:75877f35b1ff3bd5ece5b76f61b6016c52e4d096&amp;dn=Independence.Day.Resurgence.2016.WEBRip.480p.x264-VYTO+%5BP2PDL%5D&amp;tr=udp%3A%2F%2Ftracker.leechers-paradise.org%3A6969&amp;tr=udp%3A%2F%2Fzer0day.ch%3A1337&amp;tr=udp%3A%2F%2Fopen.demonii.com%3A1337&amp;tr=udp%3A%2F%2Ftracker.coppersurfer.tk%3A6969&amp;tr=udp%3A%2F%2Fexodus.desync.com%3A6969","seeders":31,"leechers":24,"uploader":"VYTOP2PDL","files":8,"time":1475152492,"description":"____    ____ ____    ____ .___________.  ______   \r\n     /   /      /   / |           | /  __    \r\n    /   /      /   /  `---|  |----`|  |  |  | \r\n        /     _    _/       |  |     |  |  |  | \r\n       /        |  |         |  |     |  `--'  | \r\n    __/         |__|         |__|      ______/  \r\n                                                  \r\nPresenting Small Encodes with quality for years!\r\n                                                                                                   \r\n                                                                                                   \r\n\r\n\r\nIndependence.Day.Resurgence.2016.WEBRip.480p.x264.AAC-VYTO\r\n\r\n\r\nGenre: Action, Adventure, Sci-Fi  \nhttp://www.imdb.com/title/tt1628841/\r\n\r\n\r\nFormat                      : MPEG-4\r\nFile size                   : 451 MiB\r\nDuration                    : 2h 0mn\r\nOverall bit rate mode       : Variable\r\n\r\nVideo\r\nFormat                      : AVC\r\nBit rate                    : 482 Kbps\r\nMaximum bit rate            : 5 309 Kbps\r\nWidth                       : 720 pixels\r\nHeight                      : 304 pixels\r\nDisplay aspect ratio        : 2.35:1\r\nFrame rate mode             : Constant\r\nFrame rate                  : 23.976 fps\r\nBit depth                   : 8 bits\r\nStream size                 : 414 MiB (92%)\r\nWriting library             : x264 core 148 r2705 3f5ed56\r\n\r\nAudio\r\nFormat                      : AAC\r\nBit rate mode               : Variable\r\nBit rate                    : 39.9 Kbps\r\nChannel(s)                  : 2 channels\r\nChannel positions           : Front: L R\r\nSampling rate               : 44.1 KHz\r\nStream size                 : 34.2 MiB (8%)\r\nLanguage                    : English\r\n\r\nSubtitle                    : Yes (English)\r\n\r\nScreen Shots: (Click links to view)\r\n \nhttps://ititli.com/XbN \nhttps://ititli.com/XbP \nhttps://ititli.com/Xbf \nhttps://ititli.com/Xbu \nhttps://ititli.com/Xbv \nhttps://ititli.com/XbR \nhttps://ititli.com/Xby \nhttps://ititli.com/Xb3 \nhttps://ititli.com/XbE \nhttps://ititli.com/XbQ \nhttps://ititli.com/XbS \nhttps://ititli.com/XbZ\r\n\r\n\r\n----------------------------------------------------------------------------------------------------\r\n\r\n\r\nEncoder Notes: Looking For Early Access To Anything You Can Provide WEBDL, DVDScr, DVDR, BluRay,\r\nDirect Audio, Music Releases and Seedboxes. If You Got anything to offer please contact us.\r\n\r\nSupport us by donating BC - 1FgwdzPsd1y25Gea8wP1qni35uGCtmkRCD","torrent":{"xt":"urn:btih:75877f35b1ff3bd5ece5b76f61b6016c52e4d096","amp;dn":"Independence.Day.Resurgence.2016.WEBRip.480p.x264-VYTO+%5BP2PDL%5D","amp;tr":["udp%3A%2F%2Ftracker.leechers-paradise.org%3A6969","udp%3A%2F%2Fzer0day.ch%3A1337","udp%3A%2F%2Fopen.demonii.com%3A1337","udp%3A%2F%2Ftracker.coppersurfer.tk%3A6969","udp%3A%2F%2Fexodus.desync.com%3A6969"],"infoHash":"75877f35b1ff3bd5ece5b76f61b6016c52e4d096","infoHashBuffer":{"type":"Buffer","data":[117,135,127,53,177,255,59,213,236,229,183,111,97,182,1,108,82,228,208,150]},"announce":[],"urlList":[]}}